<svg id="Layer_1" data-name="Layer 1" xmlns="http://www.w3.org/2000/svg" viewBox="0 0 86.45 12.89"><title>magic8balloracle</title><path d="M8.09,10.57a1.37,1.37,0,0,1-.3.29,0.86,0.86,0,0,1-.25.13c-0.14,0-.21,0-0.2-0.13L8,3.46,5,8.68a2,2,0,0,1-.44.5,0.42,0.42,0,0,1-.26.11,0.2,0.2,0,0,1-.13-0.14L2.06,3.94,1.4,10.25a0.65,0.65,0,0,1-.16.33,1.27,1.27,0,0,1-.3.29A0.92,0.92,0,0,1,.7,11c-0.14,0-.21,0-0.2-0.14l0.9-8.64A0.5,0.5,0,0,1,1.63,1.9a3.06,3.06,0,0,1,.44-0.28l0.22-.11L4.84,7.82,8.15,2a0.74,0.74,0,0,1,.66-0.47A0.35,0.35,0,0,1,9,1.6L8.24,10.24A0.66,0.66,0,0,1,8.09,10.57Z" transform="translate(-0.49 -0.44)"/><path d="M14.75,9.73a0.13,0.13,0,0,1,.17.09,0.44,0.44,0,0,1-.1.31,2,2,0,0,1-.43.43,2.46,2.46,0,0,1-.64.37q-0.66.26-.82-0.24a2.48,2.48,0,0,1-.06-0.76,3,3,0,0,1-1.26,1,1.92,1.92,0,0,1-1.19.07q-1.72-.48-1-4a4.46,4.46,0,0,1,.8-1.9,2.49,2.49,0,0,1,2.41-1.08,1.44,1.44,0,0,1,.94.44,1.07,1.07,0,0,1,.58-0.44,0.17,0.17,0,0,1,.15,0,0.14,0.14,0,0,1,0,.14q-0.7,5.08-.49,5.71,0.1,0.29.31,0.18a1.66,1.66,0,0,0,.28-0.2A0.72,0.72,0,0,1,14.75,9.73Zm-1.81-1q0.08-1,.12-1.22Q13.38,5.16,11.9,5a1.78,1.78,0,0,0-.62,0,0.86,0.86,0,0,0-.49.23,3.4,3.4,0,0,0-.49,1.37,7.9,7.9,0,0,0-.17,1.74,1.66,1.66,0,0,0,1.06,1.76,1,1,0,0,0,1.16-.28A4.35,4.35,0,0,0,12.95,8.74Z" transform="translate(-0.49 -0.44)"/><path d="M20.51,4.44a1,1,0,0,1,.42-0.35c0.2-.06.3,0,0.29,0.1Q21,8.09,20.85,8.93a9.06,9.06,0,0,1-.31,1.72,4.58,4.58,0,0,1-.7,1.39,3.17,3.17,0,0,1-1.13,1,2.78,2.78,0,0,1-1.31.31,2,2,0,0,1-1.86-.84,0.31,0.31,0,0,1,0-.27,1.15,1.15,0,0,1,.27-0.35,1.1,1.1,0,0,1,.35-0.22,0.18,0.18,0,0,1,.23,0,1.77,1.77,0,0,0,1.64.74A1.32,1.32,0,0,0,19.26,12a4.71,4.71,0,0,0,.65-2.05,3.06,3.06,0,0,1-1.27,1,1.92,1.92,0,0,1-1.2.08q-1.71-.48-1-4a4.46,4.46,0,0,1,.8-1.9,2.49,2.49,0,0,1,2.41-1.08A1.55,1.55,0,0,1,20.51,4.44ZM20,8.57q0.08-.92.07-0.92a0.14,0.14,0,0,1,0-.13Q20.39,5.16,18.91,5a1.78,1.78,0,0,0-.62,0,0.81,0.81,0,0,0-.49.23,3.36,3.36,0,0,0-.49,1.37,7.75,7.75,0,0,0-.17,1.74,1.66,1.66,0,0,0,1.05,1.76,1,1,0,0,0,1.16-.28A4.44,4.44,0,0,0,20,8.69,0.69,0.69,0,0,1,20,8.57Z" transform="translate(-0.49 -0.44)"/><path d="M22.56,4.49a1.2,1.2,0,0,1,.3-0.29,0.86,0.86,0,0,1,.26-0.13c0.14,0,.21,0,0.19.13l-0.64,6a0.67,0.67,0,0,1-.16.33,1.26,1.26,0,0,1-.3.29A0.86,0.86,0,0,1,22,11c-0.14,0-.21,0-0.19-0.14l0.64-6A0.69,0.69,0,0,1,22.56,4.49Zm0.05-2.06a1.24,1.24,0,0,1,.29-0.3A0.81,0.81,0,0,1,23.17,2c0.14,0,.21,0,0.2.13L23.32,3a0.71,0.71,0,0,1-.15.32,1.23,1.23,0,0,1-.29.3,0.79,0.79,0,0,1-.26.13c-0.14,0-.21,0-0.2-0.13l0.06-.84A0.71,0.71,0,0,1,22.61,2.42Z" transform="translate(-0.49 -0.44)"/><path d="M28.31,9.5a1.52,1.52,0,0,1,.34-0.31,0.43,0.43,0,0,1,.3-0.1,0.12,0.12,0,0,1,.09.17,1.94,1.94,0,0,1-.36.83,2.57,2.57,0,0,1-.57.57,1.86,1.86,0,0,1-.56.28,2.42,2.42,0,0,1-1,.06q-2.78-.28-2.27-3.23a4.59,4.59,0,0,1,2-3.42A2.53,2.53,0,0,1,27.37,4a1.7,1.7,0,0,1,2,1.84,0.62,0.62,0,0,1-.13.31,1.17,1.17,0,0,1-.28.31,1,1,0,0,1-.26.15q-0.23.08-.24-0.1a1.47,1.47,0,0,0-1.74-1.58,1.21,1.21,0,0,0-.74.22,3.55,3.55,0,0,0-.79,1.94,2.86,2.86,0,0,0,.25,2.17,2.35,2.35,0,0,0,1.78.85A2.11,2.11,0,0,0,28.08,10a0.86,0.86,0,0,0,.05-0.22A0.69,0.69,0,0,1,28.31,9.5Z" transform="translate(-0.49 -0.44)"/><path d="M34.2,1.51q2.39,0,2.08,2.7A2.69,2.69,0,0,1,35.33,6a1.87,1.87,0,0,1,.89,2.33,3.12,3.12,0,0,1-.55,1.3,3.46,3.46,0,0,1-3,1.39q-2.36,0-2.29-1.88A3.61,3.61,0,0,1,31,7.06a3.38,3.38,0,0,1,.82-0.8,1.69,1.69,0,0,1-.65-1.6,3.46,3.46,0,0,1,.59-1.85A2.87,2.87,0,0,1,34.2,1.51ZM33,6.63a2.8,2.8,0,0,0-.77.1,1.08,1.08,0,0,0-.61.32,2.15,2.15,0,0,0-.24.56,3.28,3.28,0,0,0-.13.87q-0.06,1.61,2.05,1.62A3.59,3.59,0,0,0,34.26,10,1.42,1.42,0,0,0,35,9.59a1.7,1.7,0,0,0,.26-0.72q0.4-2-1.75-2.22A3,3,0,0,1,33,6.63Zm0.54-4.2a2.77,2.77,0,0,0-.68.1,0.85,0.85,0,0,0-.47.25A2.36,2.36,0,0,0,32.08,4a1.51,1.51,0,0,0,1.68,1.72h0.31l0.43,0a1.29,1.29,0,0,0,.65-0.19,0.73,0.73,0,0,0,.13-0.27,2.34,2.34,0,0,0,.09-0.4Q35.65,2.39,33.55,2.42Z" transform="translate(-0.49 -0.44)"/><path d="M42.35,6a3,3,0,0,1,.62.58,2.15,2.15,0,0,1,.47,1,1.94,1.94,0,0,1-.11,1.14,3.41,3.41,0,0,1-.65,1A4.18,4.18,0,0,1,40.09,11a12.12,12.12,0,0,1-2.64,0,0.11,0.11,0,0,1-.11-0.14l0.74-8.64a1.08,1.08,0,0,1,.5-0.71,0.56,0.56,0,0,1,.3-0.06,20.21,20.21,0,0,1,2.09.3,3.69,3.69,0,0,1,1.45.56,2.13,2.13,0,0,1,1,1.68A2.72,2.72,0,0,1,42.35,6ZM42.27,9.5a1.34,1.34,0,0,0,.22-0.4,1.43,1.43,0,0,0,0-.8,2.1,2.1,0,0,0-.52-1,1.33,1.33,0,0,0-.67-0.52l-1,0-1.83,0L38.27,10.1A7,7,0,0,0,42,9.72,1.76,1.76,0,0,0,42.27,9.5ZM38.64,5.72l2.08,0.1,0.8,0a1.06,1.06,0,0,0,.67-0.35,1,1,0,0,0,.31-0.79,1.84,1.84,0,0,0-.79-1.48,4,4,0,0,0-1.62-.62q-0.5-.1-1.16-0.18Z" transform="translate(-0.49 -0.44)"/><path d="M49.73,9.73a0.13,0.13,0,0,1,.17.09,0.45,0.45,0,0,1-.1.31,2,2,0,0,1-.43.43,2.46,2.46,0,0,1-.64.37q-0.66.26-.82-0.24a2.45,2.45,0,0,1-.06-0.76,3,3,0,0,1-1.26,1,1.92,1.92,0,0,1-1.19.07q-1.72-.48-1-4a4.47,4.47,0,0,1,.8-1.9A2.49,2.49,0,0,1,47.6,4.06a1.44,1.44,0,0,1,.94.44,1.07,1.07,0,0,1,.58-0.44,0.17,0.17,0,0,1,.15,0,0.14,0.14,0,0,1,0,.14q-0.7,5.08-.49,5.71c0.06,0.19.17,0.25,0.31,0.18a1.65,1.65,0,0,0,.28-0.2A0.72,0.72,0,0,1,49.73,9.73Zm-1.81-1Q48,7.78,48,7.51,48.36,5.16,46.88,5a1.78,1.78,0,0,0-.62,0,0.85,0.85,0,0,0-.49.23,3.39,3.39,0,0,0-.49,1.37,7.93,7.93,0,0,0-.17,1.74,1.66,1.66,0,0,0,1.06,1.76,1,1,0,0,0,1.16-.28A4.38,4.38,0,0,0,47.93,8.74Z" transform="translate(-0.49 -0.44)"/><path d="M51.65,0.88a1.2,1.2,0,0,1,.3-0.29A0.9,0.9,0,0,1,52.2.46c0.14,0,.21,0,0.2.13l-0.89,9.65a0.73,0.73,0,0,1-.16.33,1.18,1.18,0,0,1-.3.3,0.93,0.93,0,0,1-.25.13c-0.14,0-.21,0-0.2-0.13l0.89-9.65A0.68,0.68,0,0,1,51.65.88Z" transform="translate(-0.49 -0.44)"/><path d="M53.87,0.88a1.2,1.2,0,0,1,.3-0.29A0.9,0.9,0,0,1,54.42.46c0.14,0,.21,0,0.2.13l-0.89,9.65a0.73,0.73,0,0,1-.16.33,1.18,1.18,0,0,1-.3.3A0.93,0.93,0,0,1,53,11c-0.14,0-.21,0-0.2-0.13l0.89-9.65A0.68,0.68,0,0,1,53.87.88Z" transform="translate(-0.49 -0.44)"/><path d="M59.61,1.45q3.15,0.1,2.69,4.74a6.52,6.52,0,0,1-1.07,3.23A3.6,3.6,0,0,1,58.08,11q-3.16-.1-2.74-4.38a9.94,9.94,0,0,1,.38-2A5.05,5.05,0,0,1,56.52,3,3.54,3.54,0,0,1,59.61,1.45Zm-0.67.91a2,2,0,0,0-1.81.7,4.19,4.19,0,0,0-.53,1.16A8.45,8.45,0,0,0,56.26,6q-0.4,4,2.5,4.09a2.06,2.06,0,0,0,1.86-.68,3.68,3.68,0,0,0,.48-1,7.49,7.49,0,0,0,.3-1.55Q61.82,2.46,58.94,2.36Z" transform="translate(-0.49 -0.44)"/><path d="M64,4.49a1.2,1.2,0,0,1,.3-0.29,0.86,0.86,0,0,1,.26-0.13c0.14,0,.21,0,0.19.13l-0.06.53a2.49,2.49,0,0,1,1.91-.67c0.11,0,.14.1,0.08,0.25a1,1,0,0,1-.4.49,0.76,0.76,0,0,1-.38.17,1.4,1.4,0,0,0-1,.25,1.14,1.14,0,0,0-.29.73l-0.46,4.3a0.67,0.67,0,0,1-.16.33,1.26,1.26,0,0,1-.3.29,0.86,0.86,0,0,1-.26.13c-0.14,0-.21,0-0.19-0.14l0.44-4.2a0.82,0.82,0,0,1,0-.1L63.8,4.81A0.69,0.69,0,0,1,64,4.49Z" transform="translate(-0.49 -0.44)"/><path d="M72.2,9.73a0.13,0.13,0,0,1,.17.09,0.45,0.45,0,0,1-.1.31,2,2,0,0,1-.43.43,2.46,2.46,0,0,1-.64.37q-0.66.26-.82-0.24a2.45,2.45,0,0,1-.06-0.76,3,3,0,0,1-1.26,1,1.92,1.92,0,0,1-1.19.07q-1.72-.48-1-4a4.47,4.47,0,0,1,.8-1.9,2.49,2.49,0,0,1,2.41-1.08A1.44,1.44,0,0,1,71,4.5a1.07,1.07,0,0,1,.58-0.44,0.17,0.17,0,0,1,.15,0,0.14,0.14,0,0,1,0,.14q-0.7,5.08-.49,5.71c0.06,0.19.17,0.25,0.31,0.18a1.65,1.65,0,0,0,.28-0.2A0.72,0.72,0,0,1,72.2,9.73Zm-1.81-1q0.08-1,.12-1.22Q70.82,5.16,69.35,5a1.78,1.78,0,0,0-.62,0,0.85,0.85,0,0,0-.49.23,3.39,3.39,0,0,0-.49,1.37,7.93,7.93,0,0,0-.17,1.74,1.66,1.66,0,0,0,1.06,1.76,1,1,0,0,0,1.16-.28A4.38,4.38,0,0,0,70.39,8.74Z" transform="translate(-0.49 -0.44)"/><path d="M77.37,9.5a1.52,1.52,0,0,1,.34-0.31A0.43,0.43,0,0,1,78,9.1a0.12,0.12,0,0,1,.09.17,1.94,1.94,0,0,1-.36.83,2.57,2.57,0,0,1-.57.57,1.86,1.86,0,0,1-.56.28,2.42,2.42,0,0,1-1,.06q-2.78-.28-2.27-3.23a4.59,4.59,0,0,1,2-3.42A2.53,2.53,0,0,1,76.44,4a1.7,1.7,0,0,1,2,1.84,0.62,0.62,0,0,1-.13.31,1.17,1.17,0,0,1-.28.31,1,1,0,0,1-.26.15q-0.23.08-.24-0.1a1.47,1.47,0,0,0-1.74-1.58,1.21,1.21,0,0,0-.74.22,3.55,3.55,0,0,0-.79,1.94,2.86,2.86,0,0,0,.25,2.17,2.35,2.35,0,0,0,1.78.85A2.11,2.11,0,0,0,77.15,10a0.86,0.86,0,0,0,.05-0.22A0.69,0.69,0,0,1,77.37,9.5Z" transform="translate(-0.49 -0.44)"/><path d="M80.34,0.88a1.2,1.2,0,0,1,.3-0.29A0.9,0.9,0,0,1,80.89.46c0.14,0,.21,0,0.2.13l-0.89,9.65a0.73,0.73,0,0,1-.16.33,1.18,1.18,0,0,1-.3.3,0.93,0.93,0,0,1-.25.13c-0.14,0-.21,0-0.2-0.13l0.89-9.65A0.68,0.68,0,0,1,80.34.88Z" transform="translate(-0.49 -0.44)"/><path d="M82.62,7.74q0,2.22,1.93,2.35a2.91,2.91,0,0,0,.76,0,0.78,0.78,0,0,0,.48-0.17,1.31,1.31,0,0,1,.28-0.35,1,1,0,0,1,.34-0.22,0.16,0.16,0,0,1,.22,0,0.65,0.65,0,0,1-.23.56,3,3,0,0,1-.64.64,2,2,0,0,1-.64.32,3.06,3.06,0,0,1-1.26.11q-2.36-.16-2.12-3A7.48,7.48,0,0,1,82,6.5a3.85,3.85,0,0,1,.61-1.21A2.72,2.72,0,0,1,85,4.06q2.27,0.08,1.9,3a1,1,0,0,1-.48.68,0.53,0.53,0,0,1-.31.07Zm0.08-.9,0.13,0L86,6.89A1.67,1.67,0,0,0,84.31,5a1.21,1.21,0,0,0-1.09.35A3.44,3.44,0,0,0,82.7,6.84Z" transform="translate(-0.49 -0.44)"/></svg>